<svg width="20" height="20" viewBox="0 0 20 20" fill="none" xmlns="http://www.w3.org/2000/svg">
<path d="M4.11765 20H2.94118L3.64706 19C4.11765 18.3125 4.41176 17.4375 4.58824 16.375C1.64706 14.9375 0 12.25 0 8.75C0 3.375 3.82353 0 10 0C16.1765 0 20 3.375 20 8.75C20 14.25 16.2353 17.5 10 17.5H9.58824C8.64706 18.6875 7 20 4.11765 20ZM10 1.25C4.47059 1.25 1.17647 4.0625 1.17647 8.75C1.17647 12.75 3.47059 14.625 5.41177 15.4375L5.82353 15.625L5.76471 16.125C5.64706 17.125 5.47059 18 5.11765 18.75C7.05882 18.5 8.17647 17.4375 8.82353 16.5625L9 16.3125H10C17.9412 16.3125 18.8235 11.0625 18.8235 8.8125C18.8235 4.0625 15.5294 1.25 10 1.25Z" fill="#71767B" stroke="#71767B"/>
</svg>
