<svg width="20" height="20" viewBox="0 0 20 20" fill="none" xmlns="http://www.w3.org/2000/svg">
<path d="M16.6667 13.8776C15.875 13.8776 15.1444 14.1327 14.5722 14.5587L8.81667 10.7347C8.91304 10.2489 8.91304 9.7511 8.81667 9.26531L14.5722 5.44133C15.1444 5.86735 15.875 6.12245 16.6667 6.12245C18.5056 6.12245 20 4.75 20 3.06122C20 1.37245 18.5056 0 16.6667 0C14.8278 0 13.3333 1.37245 13.3333 3.06122C13.3333 3.35714 13.3778 3.64031 13.4639 3.91071L7.99722 7.54592C7.18611 6.55867 5.89722 5.91837 4.44444 5.91837C1.98889 5.91837 0 7.7449 0 10C0 12.2551 1.98889 14.0816 4.44444 14.0816C5.89722 14.0816 7.18611 13.4413 7.99722 12.4541L13.4639 16.0893C13.3778 16.3597 13.3333 16.6454 13.3333 16.9388C13.3333 18.6276 14.8278 20 16.6667 20C18.5056 20 20 18.6276 20 16.9388C20 15.25 18.5056 13.8776 16.6667 13.8776ZM16.6667 1.73469C17.4639 1.73469 18.1111 2.32908 18.1111 3.06122C18.1111 3.79337 17.4639 4.38776 16.6667 4.38776C15.8694 4.38776 15.2222 3.79337 15.2222 3.06122C15.2222 2.32908 15.8694 1.73469 16.6667 1.73469ZM4.44444 12.2449C3.09722 12.2449 2 11.2372 2 10C2 8.76275 3.09722 7.7551 4.44444 7.7551C5.79167 7.7551 6.88889 8.76275 6.88889 10C6.88889 11.2372 5.79167 12.2449 4.44444 12.2449ZM16.6667 18.2653C15.8694 18.2653 15.2222 17.6709 15.2222 16.9388C15.2222 16.2066 15.8694 15.6122 16.6667 15.6122C17.4639 15.6122 18.1111 16.2066 18.1111 16.9388C18.1111 17.6709 17.4639 18.2653 16.6667 18.2653Z" fill="#71767B" stroke="#71767B"/>
</svg>
